<?xml version="1.0" encoding="UTF-8"?>
<svg xmlns="http://www.w3.org/2000/svg" viewBox="0 0 24 24" width="24" height="24">
  <defs/>
  <g fill="none" stroke-dasharray="none" fill-opacity="1" stroke-opacity="1" stroke="none">
    <g>
      <g>
        <g>
          <path d="M 12 2 C 6.48 2 2 6.48 2 12 C 2 17.52 6.48 22 12 22 C 17.52 22 22 17.52 22 12 C 22 6.48 17.52 2 12 2 Z" fill="#E83E8C" fill-opacity="0.9"/>
          <path d="M 12 2 C 6.48 2 2 6.48 2 12 C 2 17.52 6.48 22 12 22 C 17.52 22 22 17.52 22 12 C 22 6.48 17.52 2 12 2 Z" stroke="white" stroke-linecap="round" stroke-linejoin="round" stroke-width="0.5"/>
        </g>
        <g>
          <ellipse cx="8.5" cy="10" rx="1.5" ry="2" fill="white"/>
          <ellipse cx="15.5" cy="10" rx="1.5" ry="2" fill="white"/>
        </g>
        <g>
          <ellipse cx="12" cy="13" rx="3" ry="2" fill="#FFB6C1" fill-opacity="0.8"/>
          <path d="M 9 12.5 Q 12 16 15 12.5" stroke="#E83E8C" stroke-width="1.2" stroke-linecap="round" fill="none"/>
        </g>
      </g>
    </g>
  </g>
</svg>
